# xmcd
#
# Track frame offsets: 
#        150
#        40269
#        63306
#        84317
#        114575
#        135490
#        159826
#        183740
#        210928
#        234899
#        263655
#        284995
#
# Disc length: 4265 seconds
#
# Revision: 1
# Processed by: cddbd v1.5.2PL0 Copyright (c) Steve Scherf et al.
# Submitted via: ExactAudioCopyFreeDBPlugin 1.0
#
DISCID=9f10a70c
DTITLE=BOB SINCLAR - WESTERN DREAM
DYEAR=1900
DGENRE=Country
TTITLE0=Love Generation
TTITLE1=Tennessee
TTITLE2=Everybody Movin´
TTITLE3=World, Hold On
TTITLE4=Miss Me
TTITLE5=For You
TTITLE6=Sing My Song
TTITLE7=In The Name Of Love
TTITLE8=Amora, Amor
TTITLE9=Shining From Heaven
TTITLE10=Give A Lil´ Love
TTITLE11=Love Generation (Ron Carrol Remix)
EXTD=
EXTT0=
EXTT1=
EXTT2=
EXTT3=
EXTT4=
EXTT5=
EXTT6=
EXTT7=
EXTT8=
EXTT9=
EXTT10=
EXTT11=
PLAYORDER=
